<?xml version="1.0" standalone="no"?>
<!DOCTYPE svg PUBLIC "-//W3C//DTD SVG 20010904//EN"
 "http://www.w3.org/TR/2001/REC-SVG-20010904/DTD/svg10.dtd">
<svg version="1.0" xmlns="http://www.w3.org/2000/svg"
 width="500.000000pt" height="500.000000pt" viewBox="0 0 500.000000 500.000000"
 preserveAspectRatio="xMidYMid meet">

<g transform="translate(0.000000,500.000000) scale(0.100000,-0.100000)"
fill="#000000" stroke="none">
<path d="M0 2500 l0 -2500 2500 0 2500 0 0 2500 0 2500 -2500 0 -2500 0 0
-2500z m2742 990 c127 -15 192 -42 260 -110 45 -45 60 -69 74 -115 21 -75 15
-207 -14 -282 -44 -116 -152 -215 -271 -249 -31 -9 -57 -18 -59 -19 -2 -2 19
-25 47 -53 66 -66 75 -100 115 -420 l31 -257 -149 -3 c-96 -2 -152 1 -156 8
-3 6 -18 119 -33 252 -39 351 -45 360 -261 362 l-120 1 -66 -310 -65 -310
-153 -3 c-89 -1 -152 1 -152 7 0 11 308 1468 316 1494 5 16 27 17 287 17 155
0 321 -5 369 -10z"/>
<path d="M2306 3073 c-21 -98 -40 -188 -43 -200 l-5 -23 159 0 c229 0 288 22
339 126 34 71 39 164 11 208 -35 53 -84 66 -263 66 l-161 0 -37 -177z"/>
</g>
</svg>
